# xmcd
#
# Track frame offsets: 
#        150
#        18198
#        36691
#        63466
#        78048
#
# Disc length: 1278 seconds
#
# Revision: 1
# Processed by: cddbd v1.5.2PL0 Copyright (c) Steve Scherf et al.
# Submitted via: ExactAudioCopy v0.99pb5
#
DISCID=3604fc05
DTITLE=Brainstorm - Maybe (Maxi)
DYEAR=2001
DGENRE=New Age
TTITLE0=Maybe (Radio Edit)
TTITLE1=Maybe (Braithouse Radio Remix)
TTITLE2=Maybe (Braithouse Extended Remix)
TTITLE3=Maybe (Boyza Fishbone Radio Remix)
TTITLE4=Maybe (Boyza Fishbone Extended Remix)
EXTD=YEAR: 2001
EXTT0=
EXTT1=
EXTT2=
EXTT3=
EXTT4=
PLAYORDER=
